<svg xmlns="http://www.w3.org/2000/svg" viewBox="0 0 520 600" width="520" height="600"><metadata><rdf:RDF xmlns:rdf="http://www.w3.org/1999/02/22-rdf-syntax-ns#" xmlns:dc="http://purl.org/dc/elements/1.1/"><rdf:Description><dc:creator>RealFaviconGenerator</dc:creator><dc:source>https://realfavicongenerator.net</dc:source></rdf:Description></rdf:RDF></metadata><defs><clipPath id="clip-broom"><path d="M 260.00 22.00 Q 260.00 22.00 260.00 22.00L 500.76 161.00 Q 500.76 161.00 500.76 161.00L 500.76 439.00 Q 500.76 439.00 500.76 439.00L 260.00 578.00 Q 260.00 578.00 260.00 578.00L 19.24 439.00 Q 19.24 439.00 19.24 439.00L 19.24 161.00 Q 19.24 161.00 19.24 161.00 Z"></path></clipPath></defs><path d="M 260.00 2.00 Q 260.00 2.00 260.00 2.00L 518.08 151.00 Q 518.08 151.00 518.08 151.00L 518.08 449.00 Q 518.08 449.00 518.08 449.00L 260.00 598.00 Q 260.00 598.00 260.00 598.00L 1.92 449.00 Q 1.92 449.00 1.92 449.00L 1.92 151.00 Q 1.92 151.00 1.92 151.00 Z" fill="#FFC233"></path><path d="M 260.00 22.00 Q 260.00 22.00 260.00 22.00L 500.76 161.00 Q 500.76 161.00 500.76 161.00L 500.76 439.00 Q 500.76 439.00 500.76 439.00L 260.00 578.00 Q 260.00 578.00 260.00 578.00L 19.24 439.00 Q 19.24 439.00 19.24 439.00L 19.24 161.00 Q 19.24 161.00 19.24 161.00 Z" fill="#FFF1D6"></path><g clip-path="url(#clip-broom)"><path d="M 260.00 22.00 Q 260.00 22.00 260.00 22.00L 500.76 161.00 Q 500.76 161.00 500.76 161.00L 500.76 439.00 Q 500.76 439.00 500.76 439.00L 260.00 578.00 Q 260.00 578.00 260.00 578.00L 19.24 439.00 Q 19.24 439.00 19.24 439.00L 19.24 161.00 Q 19.24 161.00 19.24 161.00 Z" fill="#FFE3B0"></path><rect x="0" y="250" width="520" height="350" fill="#FFF1D6"></rect><g><defs><linearGradient id="stage-depth" x1="0" y1="0" x2="0" y2="1"><stop offset="0" stop-color="#4A3216" stop-opacity="0.1"></stop><stop offset="0.42" stop-color="#4A3216" stop-opacity="0"></stop><stop offset="1" stop-color="#F7E7BE" stop-opacity="0.16"></stop></linearGradient></defs><rect x="0" y="248" width="520" height="352" fill="#E7D2A0"></rect><polygon points="13.6,248 60.6,248 -96,600 -180,600" fill="#A47C42" opacity="0.13"></polygon><polygon points="60.6,248 107.7,248 -12,600 -96,600" fill="#F2E2B6" opacity="0.22"></polygon><polygon points="107.7,248 154.7,248 72,600 -12,600" fill="#A47C42" opacity="0.13"></polygon><polygon points="154.7,248 201.8,248 156,600 72,600" fill="#F2E2B6" opacity="0.22"></polygon><polygon points="201.8,248 248.8,248 240,600 156,600" fill="#A47C42" opacity="0.13"></polygon><polygon points="248.8,248 295.8,248 324,600 240,600" fill="#F2E2B6" opacity="0.22"></polygon><polygon points="295.8,248 342.9,248 408,600 324,600" fill="#A47C42" opacity="0.13"></polygon><polygon points="342.9,248 389.9,248 492,600 408,600" fill="#F2E2B6" opacity="0.22"></polygon><polygon points="389.9,248 437.0,248 576,600 492,600" fill="#A47C42" opacity="0.13"></polygon><polygon points="437.0,248 484.0,248 660,600 576,600" fill="#F2E2B6" opacity="0.22"></polygon><g stroke="#6E4A22" fill="none" stroke-linecap="round" stroke-linejoin="round"><path d="M54.5 363.8 L38.0 405.1 L22.9 446.4 L8.7 487.7 L-5.2 529.0 L-22.3 570.3 " stroke-opacity="0.08123218859278494" stroke-width="1.9042034869471536"></path><path d="M81.7 379.8 L74.7 400.0 L69.7 420.3 L61.7 440.6 L56.8 460.9 L49.1 481.1 " stroke-opacity="0.08566931951477272" stroke-width="1.094635482299782"></path><path d="M271.6 255.6 L273.9 285.1 L274.0 314.6 L273.9 344.2 L274.0 373.7 L274.8 403.2 " stroke-opacity="0.0559971636246064" stroke-width="1.8770746457368659"></path><path d="M311.9 298.7 L316.5 345.2 L320.0 391.8 L325.9 438.3 L331.2 484.9 L334.2 531.4 " stroke-opacity="0.04210810057642448" stroke-width="2.480282811060897"></path><path d="M362.0 291.2 L372.6 343.2 L382.8 395.3 L393.7 447.3 L404.5 499.4 L415.3 551.4 " stroke-opacity="0.04712600019374804" stroke-width="1.7580544098610518"></path><path d="M431.5 326.2 L445.1 361.0 L455.3 395.9 L467.9 430.8 L478.5 465.7 L489.4 500.6 " stroke-opacity="0.08010204466801951" stroke-width="1.886311281694725"></path><path d="M472.5 279.0 L492.2 324.0 L514.2 369.0 L532.9 414.0 L553.2 459.0 L573.1 504.0 " stroke-opacity="0.04319278065378967" stroke-width="1.5897612488923187"></path></g><g fill="#6E4A22"><ellipse cx="178" cy="428" rx="3.2" ry="1.6" opacity="0.12" transform="rotate(-18 178 428)"></ellipse><ellipse cx="360" cy="392" rx="2.6" ry="1.3" opacity="0.1" transform="rotate(12 360 392)"></ellipse><ellipse cx="300" cy="520" rx="3.6" ry="1.8" opacity="0.1" transform="rotate(-8 300 520)"></ellipse></g><path d="M26.8 248 Q -66.9 424.0 -156.5 600" fill="none" stroke="#7A5524" stroke-opacity="0.07" stroke-width="0.8"></path><path d="M39.5 248 Q -43.7 424.0 -133.8 600" fill="none" stroke="#7A5524" stroke-opacity="0.082" stroke-width="0.8"></path><path d="M50.3 248 Q -34.1 424.0 -114.5 600" fill="none" stroke="#7A5524" stroke-opacity="0.09400000000000001" stroke-width="0.8"></path><path d="M73.8 248 Q 2.7 424.0 -72.5 600" fill="none" stroke="#7A5524" stroke-opacity="0.082" stroke-width="0.8"></path><path d="M86.5 248 Q 14.9 424.0 -49.8 600" fill="none" stroke="#7A5524" stroke-opacity="0.09400000000000001" stroke-width="0.8"></path><path d="M97.3 248 Q 35.4 424.0 -30.5 600" fill="none" stroke="#7A5524" stroke-opacity="0.07" stroke-width="0.8"></path><path d="M120.9 248 Q 64.2 424.0 11.5 600" fill="none" stroke="#7A5524" stroke-opacity="0.09400000000000001" stroke-width="0.8"></path><path d="M133.6 248 Q 87.4 424.0 34.2 600" fill="none" stroke="#7A5524" stroke-opacity="0.07" stroke-width="0.8"></path><path d="M144.4 248 Q 96.9 424.0 53.5 600" fill="none" stroke="#7A5524" stroke-opacity="0.082" stroke-width="0.8"></path><path d="M167.9 248 Q 133.7 424.0 95.5 600" fill="none" stroke="#7A5524" stroke-opacity="0.07" stroke-width="0.8"></path><path d="M180.6 248 Q 145.9 424.0 118.2 600" fill="none" stroke="#7A5524" stroke-opacity="0.082" stroke-width="0.8"></path><path d="M191.4 248 Q 166.5 424.0 137.5 600" fill="none" stroke="#7A5524" stroke-opacity="0.09400000000000001" stroke-width="0.8"></path><path d="M214.9 248 Q 195.2 424.0 179.5 600" fill="none" stroke="#7A5524" stroke-opacity="0.082" stroke-width="0.8"></path><path d="M227.6 248 Q 218.4 424.0 202.2 600" fill="none" stroke="#7A5524" stroke-opacity="0.09400000000000001" stroke-width="0.8"></path><path d="M238.5 248 Q 228.0 424.0 221.5 600" fill="none" stroke="#7A5524" stroke-opacity="0.07" stroke-width="0.8"></path><path d="M262.0 248 Q 264.7 424.0 263.5 600" fill="none" stroke="#7A5524" stroke-opacity="0.09400000000000001" stroke-width="0.8"></path><path d="M274.7 248 Q 276.9 424.0 286.2 600" fill="none" stroke="#7A5524" stroke-opacity="0.07" stroke-width="0.8"></path><path d="M285.5 248 Q 297.5 424.0 305.5 600" fill="none" stroke="#7A5524" stroke-opacity="0.082" stroke-width="0.8"></path><path d="M309.0 248 Q 326.3 424.0 347.5 600" fill="none" stroke="#7A5524" stroke-opacity="0.07" stroke-width="0.8"></path><path d="M321.7 248 Q 349.5 424.0 370.2 600" fill="none" stroke="#7A5524" stroke-opacity="0.082" stroke-width="0.8"></path><path d="M332.5 248 Q 359.0 424.0 389.5 600" fill="none" stroke="#7A5524" stroke-opacity="0.09400000000000001" stroke-width="0.8"></path><path d="M356.1 248 Q 395.8 424.0 431.5 600" fill="none" stroke="#7A5524" stroke-opacity="0.082" stroke-width="0.8"></path><path d="M368.8 248 Q 408.0 424.0 454.2 600" fill="none" stroke="#7A5524" stroke-opacity="0.09400000000000001" stroke-width="0.8"></path><path d="M379.6 248 Q 428.5 424.0 473.5 600" fill="none" stroke="#7A5524" stroke-opacity="0.07" stroke-width="0.8"></path><path d="M403.1 248 Q 457.3 424.0 515.5 600" fill="none" stroke="#7A5524" stroke-opacity="0.09400000000000001" stroke-width="0.8"></path><path d="M415.8 248 Q 480.5 424.0 538.2 600" fill="none" stroke="#7A5524" stroke-opacity="0.07" stroke-width="0.8"></path><path d="M426.6 248 Q 490.1 424.0 557.5 600" fill="none" stroke="#7A5524" stroke-opacity="0.082" stroke-width="0.8"></path><path d="M450.1 248 Q 526.8 424.0 599.5 600" fill="none" stroke="#7A5524" stroke-opacity="0.07" stroke-width="0.8"></path><path d="M462.8 248 Q 539.0 424.0 622.2 600" fill="none" stroke="#7A5524" stroke-opacity="0.082" stroke-width="0.8"></path><path d="M473.7 248 Q 559.6 424.0 641.5 600" fill="none" stroke="#7A5524" stroke-opacity="0.09400000000000001" stroke-width="0.8"></path><rect x="0" y="248" width="520" height="352" fill="url(#stage-depth)"></rect><line x1="13.6" y1="248" x2="-180" y2="600" stroke="#6E4A22" stroke-opacity="0.24" stroke-width="1"></line><line x1="60.6" y1="248" x2="-96" y2="600" stroke="#6E4A22" stroke-opacity="0.24" stroke-width="1"></line><line x1="107.7" y1="248" x2="-12" y2="600" stroke="#6E4A22" stroke-opacity="0.24" stroke-width="1"></line><line x1="154.7" y1="248" x2="72" y2="600" stroke="#6E4A22" stroke-opacity="0.24" stroke-width="1"></line><line x1="201.8" y1="248" x2="156" y2="600" stroke="#6E4A22" stroke-opacity="0.24" stroke-width="1"></line><line x1="248.8" y1="248" x2="240" y2="600" stroke="#6E4A22" stroke-opacity="0.24" stroke-width="1"></line><line x1="295.8" y1="248" x2="324" y2="600" stroke="#6E4A22" stroke-opacity="0.24" stroke-width="1"></line><line x1="342.9" y1="248" x2="408" y2="600" stroke="#6E4A22" stroke-opacity="0.24" stroke-width="1"></line><line x1="389.9" y1="248" x2="492" y2="600" stroke="#6E4A22" stroke-opacity="0.24" stroke-width="1"></line><line x1="437.0" y1="248" x2="576" y2="600" stroke="#6E4A22" stroke-opacity="0.24" stroke-width="1"></line><line x1="484.0" y1="248" x2="660" y2="600" stroke="#6E4A22" stroke-opacity="0.24" stroke-width="1"></line><line x1="0" y1="248" x2="520" y2="248" stroke="#6E4A22" stroke-opacity="0.22" stroke-width="2"></line></g><g style="mix-blend-mode: multiply;"><defs><radialGradient id="floor-shade" cx="260" cy="430" r="250" gradientUnits="userSpaceOnUse" gradientTransform="translate(260 430) scale(1 0.55) translate(-260 -430)"><stop offset="0" stop-color="#3A2810" stop-opacity="0"></stop><stop offset="0.42" stop-color="#3A2810" stop-opacity="0"></stop><stop offset="1" stop-color="#3A2810" stop-opacity="0.22"></stop></radialGradient></defs><rect x="0" y="250" width="520" height="350" fill="url(#floor-shade)"></rect></g><g><defs><clipPath id="curtain-clip"><path d="M -12 -12 L 532 -12 L 532 300 Q 536.0 310.9 513.0 299.1 Q 490.0 315.4 467.0 299.0 Q 444.0 311.5 421.0 297.5 Q 398.0 314.6 375.0 297.8 Q 352.0 312.3 329.0 301.1 Q 306.0 315.8 283.0 298.2 Q 260.0 314.9 237.0 301.7 Q 214.0 315.0 191.0 299.1 Q 168.0 317.3 145.0 302.1 Q 122.0 316.5 99.0 300.6 Q 76.0 316.8 53.0 297.8 Q 30.0 315.2 7.0 301.7 Q -16.0 312.6 -12.0 297.3 L -12 -12 Z"></path></clipPath><linearGradient id="fold-grad" x1="0" y1="0" x2="1" y2="0"><stop offset="0" stop-color="#000" stop-opacity="0.16"></stop><stop offset="0.5" stop-color="#fff" stop-opacity="0.12"></stop><stop offset="1" stop-color="#000" stop-opacity="0.16"></stop></linearGradient><pattern id="curtain-folds" width="46" height="20" patternUnits="userSpaceOnUse"><rect width="46" height="20" fill="url(#fold-grad)"></rect></pattern><linearGradient id="satin-band" x1="0" y1="0" x2="1" y2="0"><stop offset="0" stop-color="#fff" stop-opacity="0"></stop><stop offset="0.5" stop-color="#fff" stop-opacity="0.5"></stop><stop offset="1" stop-color="#fff" stop-opacity="0"></stop></linearGradient><pattern id="curtain-sheen" width="46" height="326" patternUnits="userSpaceOnUse" patternTransform="translate(11 0)"><rect x="9" y="0" width="20" height="326" fill="url(#satin-band)"></rect></pattern></defs><path d="M 532 300 Q 536.0 310.9 513.0 299.1 Q 490.0 315.4 467.0 299.0 Q 444.0 311.5 421.0 297.5 Q 398.0 314.6 375.0 297.8 Q 352.0 312.3 329.0 301.1 Q 306.0 315.8 283.0 298.2 Q 260.0 314.9 237.0 301.7 Q 214.0 315.0 191.0 299.1 Q 168.0 317.3 145.0 302.1 Q 122.0 316.5 99.0 300.6 Q 76.0 316.8 53.0 297.8 Q 30.0 315.2 7.0 301.7 Q -16.0 312.6 -12.0 297.3 " transform="translate(0 4)" fill="none" stroke="#000" stroke-opacity="0.05" stroke-width="1.5" stroke-linecap="round"></path><g clip-path="url(#curtain-clip)"><rect x="-12" y="-12" width="175" height="326" fill="#0E8444"></rect><rect x="163" y="-12" width="12" height="326" fill="#ECECEC"></rect><rect x="175" y="-12" width="172" height="326" fill="#2E2920"></rect><rect x="347" y="-12" width="12" height="326" fill="#ECECEC"></rect><rect x="359" y="-12" width="185" height="326" fill="#EFCB41"></rect><rect x="-12" y="-12" width="556" height="326" fill="url(#curtain-folds)"></rect><rect x="-12" y="-12" width="556" height="7" fill="#fff" opacity="0.18"></rect><rect x="-12" y="-12" width="556" height="326" fill="url(#curtain-sheen)" opacity="0.42" style="mix-blend-mode: screen;"></rect></g></g><g style="mix-blend-mode: screen;"><defs><linearGradient id="beam-grad-l" x1="0" y1="0" x2="1" y2="1"><stop offset="0" stop-color="#FFFAEA" stop-opacity="0.4"></stop><stop offset="1" stop-color="#FFFAEA" stop-opacity="0.03"></stop></linearGradient><linearGradient id="beam-grad-r" x1="1" y1="0" x2="0" y2="1"><stop offset="0" stop-color="#FFFAEA" stop-opacity="0.4"></stop><stop offset="1" stop-color="#FFFAEA" stop-opacity="0.03"></stop></linearGradient><linearGradient id="beam-grad-c" x1="0" y1="0" x2="0" y2="1"><stop offset="0" stop-color="#FFFAEA" stop-opacity="0.38"></stop><stop offset="1" stop-color="#FFFAEA" stop-opacity="0.03"></stop></linearGradient><radialGradient id="pool-grad" cx="0.5" cy="0.5" r="0.5"><stop offset="0" stop-color="#FFF6D6" stop-opacity="0.6"></stop><stop offset="0.35" stop-color="#FFF3CC" stop-opacity="0.36"></stop><stop offset="0.62" stop-color="#FFF3CC" stop-opacity="0.17"></stop><stop offset="1" stop-color="#FFF3CC" stop-opacity="0"></stop></radialGradient></defs><g style="filter: blur(4.5px);"><polygon points="24,124 88,112 332,474 196,496" fill="url(#beam-grad-l)"></polygon><polygon points="496,124 432,112 188,474 324,496" fill="url(#beam-grad-r)"></polygon><polygon points="236,-12 284,-12 338,490 182,490" fill="url(#beam-grad-c)"></polygon></g><ellipse cx="260" cy="408" rx="200" ry="100" fill="url(#pool-grad)"></ellipse></g><g transform="translate(0 -34)"><ellipse cx="232" cy="402" rx="152" ry="13" fill="#2A1A0A" opacity="0.11" style="filter: blur(4px);"></ellipse><g transform="translate(355 372)"><ellipse cx="2" cy="10" rx="19.6" ry="10" fill="#2A1A0A" opacity="0.1"></ellipse><g transform="scale(1 0.72) rotate(-8)"><ellipse cx="0" cy="4" rx="20" ry="20" fill="#C8761C"></ellipse><circle cx="0" cy="0" r="20" fill="#FFC233"></circle><circle cx="0" cy="0" r="15.600000000000001" fill="none" stroke="#E8951B" stroke-width="2.4"></circle><circle cx="-5.6000000000000005" cy="-5.6000000000000005" r="3.2" fill="#FFE6A3"></circle></g></g><g transform="translate(398 360)"><ellipse cx="1.7000000000000002" cy="8.5" rx="16.66" ry="8.5" fill="#2A1A0A" opacity="0.1"></ellipse><g transform="scale(1 0.72) rotate(10)"><ellipse cx="0" cy="3.4000000000000004" rx="17" ry="17" fill="#C8761C"></ellipse><circle cx="0" cy="0" r="17" fill="#FFC233"></circle><circle cx="0" cy="0" r="13.26" fill="none" stroke="#E8951B" stroke-width="2.04"></circle><text x="0" y="5.78" text-anchor="middle" font-family="Fredoka, sans-serif" font-weight="700" font-size="15.64" fill="#B5610F">MT</text></g></g><g transform="translate(300 384)"><ellipse cx="2.3000000000000003" cy="11.5" rx="22.54" ry="11.5" fill="#2A1A0A" opacity="0.1"></ellipse><g transform="scale(1 0.72) rotate(4)"><ellipse cx="0" cy="4.6000000000000005" rx="23" ry="23" fill="#C8761C"></ellipse><circle cx="0" cy="0" r="23" fill="#FFC233"></circle><circle cx="0" cy="0" r="17.94" fill="none" stroke="#E8951B" stroke-width="2.76"></circle><text x="0" y="7.82" text-anchor="middle" font-family="Fredoka, sans-serif" font-weight="700" font-size="21.16" fill="#B5610F">MT</text></g></g><g transform="translate(250 372)"><ellipse cx="1.8" cy="9" rx="17.64" ry="9" fill="#2A1A0A" opacity="0.1"></ellipse><g transform="scale(1 0.72) rotate(-6)"><ellipse cx="0" cy="3.6" rx="18" ry="18" fill="#C8761C"></ellipse><circle cx="0" cy="0" r="18" fill="#FFC233"></circle><circle cx="0" cy="0" r="14.040000000000001" fill="none" stroke="#E8951B" stroke-width="2.16"></circle><circle cx="-5.040000000000001" cy="-5.040000000000001" r="2.88" fill="#FFE6A3"></circle></g></g><g transform="translate(208 384)"><ellipse cx="2.6" cy="13" rx="25.48" ry="13" fill="#2A1A0A" opacity="0.1"></ellipse><g transform="scale(1 0.72) rotate(3)"><ellipse cx="0" cy="5.2" rx="26" ry="26" fill="#C8761C"></ellipse><circle cx="0" cy="0" r="26" fill="#FFC233"></circle><circle cx="0" cy="0" r="20.28" fill="none" stroke="#E8951B" stroke-width="3.12"></circle><text x="0" y="8.84" text-anchor="middle" font-family="Fredoka, sans-serif" font-weight="700" font-size="23.92" fill="#B5610F">MT</text></g></g><g transform="translate(158 372)"><ellipse cx="2" cy="10" rx="19.6" ry="10" fill="#2A1A0A" opacity="0.1"></ellipse><g transform="scale(1 0.72) rotate(-10)"><ellipse cx="0" cy="4" rx="20" ry="20" fill="#C8761C"></ellipse><circle cx="0" cy="0" r="20" fill="#FFC233"></circle><circle cx="0" cy="0" r="15.600000000000001" fill="none" stroke="#E8951B" stroke-width="2.4"></circle><text x="0" y="6.800000000000001" text-anchor="middle" font-family="Fredoka, sans-serif" font-weight="700" font-size="18.400000000000002" fill="#B5610F">MT</text></g></g><g transform="translate(120 388)"><ellipse cx="1.6" cy="8" rx="15.68" ry="8" fill="#2A1A0A" opacity="0.1"></ellipse><g transform="scale(1 0.72) rotate(6)"><ellipse cx="0" cy="3.2" rx="16" ry="16" fill="#C8761C"></ellipse><circle cx="0" cy="0" r="16" fill="#FFC233"></circle><circle cx="0" cy="0" r="12.48" fill="none" stroke="#E8951B" stroke-width="1.92"></circle><circle cx="-4.48" cy="-4.48" r="2.56" fill="#FFE6A3"></circle></g></g><g transform="translate(432 386)"><ellipse cx="1.3" cy="6.5" rx="12.74" ry="6.5" fill="#2A1A0A" opacity="0.1"></ellipse><g transform="scale(1 0.72) rotate(18)"><ellipse cx="0" cy="2.6" rx="13" ry="13" fill="#C8761C"></ellipse><circle cx="0" cy="0" r="13" fill="#FFC233"></circle><circle cx="0" cy="0" r="10.14" fill="none" stroke="#E8951B" stroke-width="1.56"></circle><text x="0" y="4.42" text-anchor="middle" font-family="Fredoka, sans-serif" font-weight="700" font-size="11.96" fill="#B5610F">MT</text></g></g><g transform="translate(96 390)"><ellipse cx="1.2000000000000002" cy="6" rx="11.76" ry="6" fill="#2A1A0A" opacity="0.1"></ellipse><g transform="scale(1 0.72) rotate(-14)"><ellipse cx="0" cy="2.4000000000000004" rx="12" ry="12" fill="#C8761C"></ellipse><circle cx="0" cy="0" r="12" fill="#FFC233"></circle><circle cx="0" cy="0" r="9.36" fill="none" stroke="#E8951B" stroke-width="1.44"></circle><circle cx="-3.3600000000000003" cy="-3.3600000000000003" r="1.92" fill="#FFE6A3"></circle></g></g></g><text x="260" y="444" text-anchor="middle" font-family="Fredoka, sans-serif" font-weight="600" font-size="82" fill="#1C1208" opacity="0.32" letter-spacing="-1.5" style="filter: blur(3px);">easystafe</text><text x="260" y="438" text-anchor="middle" font-family="Fredoka, sans-serif" font-weight="600" font-size="82" fill="#008541" letter-spacing="-1.5">easystafe</text><text x="260" y="477" text-anchor="middle" font-family="'Space Mono', monospace" font-weight="700" font-size="15" fill="#C8761C" letter-spacing="0">github.com/moz-gpe/easystafe</text><g style="mix-blend-mode: multiply;"><defs><radialGradient id="vig-grad" cx="260" cy="425" r="290" gradientUnits="userSpaceOnUse" gradientTransform="translate(260 425) scale(1 0.62) translate(-260 -425)"><stop offset="0" stop-color="#1E1305" stop-opacity="0"></stop><stop offset="0.34" stop-color="#1E1305" stop-opacity="0"></stop><stop offset="0.68" stop-color="#1E1305" stop-opacity="0.08"></stop><stop offset="1" stop-color="#1E1305" stop-opacity="0.2"></stop></radialGradient></defs><path d="M 260.00 22.00 Q 260.00 22.00 260.00 22.00L 500.76 161.00 Q 500.76 161.00 500.76 161.00L 500.76 439.00 Q 500.76 439.00 500.76 439.00L 260.00 578.00 Q 260.00 578.00 260.00 578.00L 19.24 439.00 Q 19.24 439.00 19.24 439.00L 19.24 161.00 Q 19.24 161.00 19.24 161.00 Z" fill="url(#vig-grad)"></path><defs><linearGradient id="front-shade" x1="0" y1="0" x2="0" y2="1"><stop offset="0" stop-color="#3A2810" stop-opacity="0"></stop><stop offset="1" stop-color="#3A2810" stop-opacity="0.16"></stop></linearGradient></defs><rect x="0" y="492" width="520" height="108" fill="url(#front-shade)"></rect></g><g transform="translate(0 -34)"><g transform="translate(286 168) rotate(26)"><line x1="0" y1="0" x2="0" y2="150" stroke="#7C4A22" stroke-width="14" stroke-linecap="round"></line><line x1="4" y1="6" x2="4" y2="144" stroke="#5E3618" stroke-width="2.4" stroke-linecap="round" opacity="0.3"></line><line x1="-3.5" y1="6" x2="-3.5" y2="142" stroke="#9C6630" stroke-width="2.4" stroke-linecap="round" opacity="0.5"></line><line x1="-1" y1="10" x2="-1" y2="138" stroke="#6B3F1C" stroke-width="0.9" stroke-linecap="round" opacity="0.25"></line><line x1="1.5" y1="14" x2="1.5" y2="134" stroke="#6B3F1C" stroke-width="0.9" stroke-linecap="round" opacity="0.2"></line><g stroke="#5E3618" stroke-width="0.8" stroke-linecap="round" opacity="0.22"><line x1="-4" y1="42" x2="3" y2="46"></line><line x1="-3" y1="92" x2="4" y2="95"></line><line x1="-4" y1="118" x2="2" y2="121"></line></g><rect x="-12.5" y="154" width="25" height="15" rx="6" fill="#4A2F14"></rect><path d="M -13 170 C -23 198 -34 226 -45 256 Q -38 263 -32 257 Q -25 263 -19 257 Q -13 263 -7 257 Q -1 263 5 257 Q 11 263 17 257 Q 23 263 29 257 Q 37 263 45 256 C 34 226 23 198 13 170 Z" fill="#FFB938" stroke="#B5610F" stroke-width="2.4" stroke-linejoin="round"></path><g fill="none" stroke-linecap="round"><g stroke="#C8761C" stroke-width="1.4"><path d="M -7 178 Q -25 216 -40 255"></path><path d="M -2 176 Q -8 212 -16 256"></path><path d="M 2 176 Q 9 213 17 256"></path><path d="M 7 178 Q 26 216 40 255"></path></g><g stroke="#E8951B" stroke-width="1.7"><path d="M -8 178 Q -27 216 -42 256"></path><path d="M -5 176 Q -16 214 -29 258"></path><path d="M -3 176 Q -9 212 -18 254"></path><path d="M -1 175 Q -3 214 -6 259"></path><path d="M 1 175 Q 4 212 8 255"></path><path d="M 3 176 Q 11 214 20 258"></path><path d="M 6 176 Q 22 215 31 254"></path><path d="M 8 178 Q 31 216 42 257"></path></g><g stroke="#FFD679" stroke-width="0.9"><path d="M -4 177 Q -14 214 -24 255"></path><path d="M 0 176 Q 1 213 1 257"></path><path d="M 4 177 Q 14 214 24 255"></path></g></g><path d="M -12 185 Q 0 190 12 185" fill="none" stroke="#B5610F" stroke-width="2.4" stroke-linecap="round"></path></g></g><g><g transform="translate(104 398) rotate(0)"><defs><radialGradient id="spark-104-398" cx="0" cy="0" r="14" gradientUnits="userSpaceOnUse"><stop offset="0" stop-color="#FFFDF0" stop-opacity="1"></stop><stop offset="0.55" stop-color="#FFFDF0" stop-opacity="0.85"></stop><stop offset="1" stop-color="#FFFDF0" stop-opacity="0.5"></stop></radialGradient></defs><path d="M0.00 -10.65 Q 0.21 -0.36 10.27 -5.93 Q 0.42 -0.00 10.28 5.93 Q 0.21 0.36 0.00 10.43 Q -0.21 0.36 -11.38 6.57 Q -0.42 0.00 -7.61 -4.40 Q -0.21 -0.36 -0.00 -10.65 Z" fill="url(#spark-104-398)" opacity="0.7"></path></g><g transform="translate(250 394) rotate(0)"><defs><radialGradient id="spark-250-394" cx="0" cy="0" r="11" gradientUnits="userSpaceOnUse"><stop offset="0" stop-color="#FFFDF0" stop-opacity="1"></stop><stop offset="0.55" stop-color="#FFFDF0" stop-opacity="0.85"></stop><stop offset="1" stop-color="#FFFDF0" stop-opacity="0.5"></stop></radialGradient></defs><path d="M0.00 -9.73 Q 0.23 -0.23 8.36 0.00 Q 0.23 0.23 0.00 6.09 Q -0.23 0.23 -9.96 0.00 Q -0.23 -0.23 -0.00 -9.73 Z" fill="url(#spark-250-394)" opacity="0.6"></path></g><g transform="translate(428 404) rotate(45)"><defs><radialGradient id="spark-428-404" cx="0" cy="0" r="13.5" gradientUnits="userSpaceOnUse"><stop offset="0" stop-color="#FFFDF0" stop-opacity="1"></stop><stop offset="0.55" stop-color="#FFFDF0" stop-opacity="0.85"></stop><stop offset="1" stop-color="#FFFDF0" stop-opacity="0.5"></stop></radialGradient></defs><path d="M0.00 -11.34 Q 0.29 -0.29 13.16 0.00 Q 0.29 0.29 0.00 13.49 Q -0.29 0.29 -10.02 0.00 Q -0.29 -0.29 -0.00 -11.34 Z" fill="url(#spark-428-404)" opacity="0.75"></path></g><g transform="translate(150 440) rotate(20)"><defs><radialGradient id="spark-150-440" cx="0" cy="0" r="10.5" gradientUnits="userSpaceOnUse"><stop offset="0" stop-color="#FFFDF0" stop-opacity="1"></stop><stop offset="0.55" stop-color="#FFFDF0" stop-opacity="0.85"></stop><stop offset="1" stop-color="#FFFDF0" stop-opacity="0.5"></stop></radialGradient></defs><path d="M0.00 -8.46 Q 0.19 -0.25 9.90 -3.22 Q 0.30 0.10 3.81 5.24 Q 0.00 0.32 -3.85 5.30 Q -0.30 0.10 -7.72 -2.51 Q -0.19 -0.25 -0.00 -8.46 Z" fill="url(#spark-150-440)" opacity="0.55"></path></g><g transform="translate(344 418) rotate(45)"><defs><radialGradient id="spark-344-418" cx="0" cy="0" r="10" gradientUnits="userSpaceOnUse"><stop offset="0" stop-color="#FFFDF0" stop-opacity="1"></stop><stop offset="0.55" stop-color="#FFFDF0" stop-opacity="0.85"></stop><stop offset="1" stop-color="#FFFDF0" stop-opacity="0.5"></stop></radialGradient></defs><path d="M0.00 -9.67 Q 0.21 -0.21 8.36 0.00 Q 0.21 0.21 0.00 8.49 Q -0.21 0.21 -5.77 0.00 Q -0.21 -0.21 -0.00 -9.67 Z" fill="url(#spark-344-418)" opacity="0.65"></path></g></g></g><path d="M 260.00 38.00 Q 260.00 38.00 260.00 38.00L 486.90 169.00 Q 486.90 169.00 486.90 169.00L 486.90 431.00 Q 486.90 431.00 486.90 431.00L 260.00 562.00 Q 260.00 562.00 260.00 562.00L 33.10 431.00 Q 33.10 431.00 33.10 431.00L 33.10 169.00 Q 33.10 169.00 33.10 169.00 Z" fill="none" stroke="#FFCf6b" stroke-width="5" stroke-dasharray="2 13" stroke-linecap="round" opacity="0.85"></path></svg>