<?xml version="1.0"?>
<svg viewBox="0 0 520 600" width="520" height="600" xmlns="http://www.w3.org/2000/svg"><defs><clipPath id="clip-broom"><path d="M 260.00 22.00 Q 260.00 22.00 260.00 22.00L 500.76 161.00 Q 500.76 161.00 500.76 161.00L 500.76 439.00 Q 500.76 439.00 500.76 439.00L 260.00 578.00 Q 260.00 578.00 260.00 578.00L 19.24 439.00 Q 19.24 439.00 19.24 439.00L 19.24 161.00 Q 19.24 161.00 19.24 161.00 Z"></path></clipPath></defs><path d="M 260.00 2.00 Q 260.00 2.00 260.00 2.00L 518.08 151.00 Q 518.08 151.00 518.08 151.00L 518.08 449.00 Q 518.08 449.00 518.08 449.00L 260.00 598.00 Q 260.00 598.00 260.00 598.00L 1.92 449.00 Q 1.92 449.00 1.92 449.00L 1.92 151.00 Q 1.92 151.00 1.92 151.00 Z" fill="#8B5526"></path><path d="M 260.00 22.00 Q 260.00 22.00 260.00 22.00L 500.76 161.00 Q 500.76 161.00 500.76 161.00L 500.76 439.00 Q 500.76 439.00 500.76 439.00L 260.00 578.00 Q 260.00 578.00 260.00 578.00L 19.24 439.00 Q 19.24 439.00 19.24 439.00L 19.24 161.00 Q 19.24 161.00 19.24 161.00 Z" fill="#FFF1D6"></path><g clip-path="url(#clip-broom)"><path d="M 260.00 22.00 Q 260.00 22.00 260.00 22.00L 500.76 161.00 Q 500.76 161.00 500.76 161.00L 500.76 439.00 Q 500.76 439.00 500.76 439.00L 260.00 578.00 Q 260.00 578.00 260.00 578.00L 19.24 439.00 Q 19.24 439.00 19.24 439.00L 19.24 161.00 Q 19.24 161.00 19.24 161.00 Z" fill="#FFE3B0"></path><rect x="0" y="250" width="520" height="350" fill="#FFF1D6"></rect><g><defs><linearGradient id="stage-depth" x1="0" y1="0" x2="0" y2="1"><stop offset="0" stop-color="#3A2410" stop-opacity="0.11"></stop><stop offset="0.42" stop-color="#3A2410" stop-opacity="0"></stop><stop offset="1" stop-color="#FFEFC8" stop-opacity="0.12"></stop></linearGradient></defs><polygon points="13.6,248 60.6,248 -96,600 -180,600" fill="#5A3A12" opacity="0.04"></polygon><polygon points="107.7,248 154.7,248 72,600 -12,600" fill="#5A3A12" opacity="0.04"></polygon><polygon points="201.8,248 248.8,248 240,600 156,600" fill="#5A3A12" opacity="0.04"></polygon><polygon points="295.8,248 342.9,248 408,600 324,600" fill="#5A3A12" opacity="0.04"></polygon><polygon points="389.9,248 437.0,248 576,600 492,600" fill="#5A3A12" opacity="0.04"></polygon><rect x="0" y="248" width="520" height="352" fill="url(#stage-depth)"></rect><line x1="13.6" y1="248" x2="-180" y2="600" stroke="#7C4A22" stroke-opacity="0.15" stroke-width="1"></line><line x1="60.6" y1="248" x2="-96" y2="600" stroke="#7C4A22" stroke-opacity="0.15" stroke-width="1"></line><line x1="107.7" y1="248" x2="-12" y2="600" stroke="#7C4A22" stroke-opacity="0.15" stroke-width="1"></line><line x1="154.7" y1="248" x2="72" y2="600" stroke="#7C4A22" stroke-opacity="0.15" stroke-width="1"></line><line x1="201.8" y1="248" x2="156" y2="600" stroke="#7C4A22" stroke-opacity="0.15" stroke-width="1"></line><line x1="248.8" y1="248" x2="240" y2="600" stroke="#7C4A22" stroke-opacity="0.15" stroke-width="1"></line><line x1="295.8" y1="248" x2="324" y2="600" stroke="#7C4A22" stroke-opacity="0.15" stroke-width="1"></line><line x1="342.9" y1="248" x2="408" y2="600" stroke="#7C4A22" stroke-opacity="0.15" stroke-width="1"></line><line x1="389.9" y1="248" x2="492" y2="600" stroke="#7C4A22" stroke-opacity="0.15" stroke-width="1"></line><line x1="437.0" y1="248" x2="576" y2="600" stroke="#7C4A22" stroke-opacity="0.15" stroke-width="1"></line><line x1="484.0" y1="248" x2="660" y2="600" stroke="#7C4A22" stroke-opacity="0.15" stroke-width="1"></line><line x1="0" y1="248" x2="520" y2="248" stroke="#7C4A22" stroke-opacity="0.16" stroke-width="2"></line></g><g style="mix-blend-mode: multiply;"><defs><radialGradient id="floor-shade" cx="260" cy="430" r="250" gradientUnits="userSpaceOnUse" gradientTransform="translate(260 430) scale(1 0.55) translate(-260 -430)"><stop offset="0" stop-color="#1E1305" stop-opacity="0"></stop><stop offset="0.42" stop-color="#1E1305" stop-opacity="0"></stop><stop offset="1" stop-color="#1E1305" stop-opacity="0.4"></stop></radialGradient></defs><rect x="0" y="250" width="520" height="350" fill="url(#floor-shade)"></rect></g><g><defs><clipPath id="curtain-clip"><path d="M -12 -12 L 532 -12 L 532 272 Q 509.0 289.0 486.0 272.0 Q 463.0 289.0 440.0 272.0 Q 417.0 289.0 394.0 272.0 Q 371.0 289.0 348.0 272.0 Q 325.0 289.0 302.0 272.0 Q 279.0 289.0 256.0 272.0 Q 233.0 289.0 210.0 272.0 Q 187.0 289.0 164.0 272.0 Q 141.0 289.0 118.0 272.0 Q 95.0 289.0 72.0 272.0 Q 49.0 289.0 26.0 272.0 Q 3.0 289.0 -12.0 272.0 L -12 -12 Z"></path></clipPath><linearGradient id="fold-grad" x1="0" y1="0" x2="1" y2="0"><stop offset="0" stop-color="#000" stop-opacity="0.16"></stop><stop offset="0.5" stop-color="#fff" stop-opacity="0.12"></stop><stop offset="1" stop-color="#000" stop-opacity="0.16"></stop></linearGradient><pattern id="curtain-folds" width="46" height="20" patternUnits="userSpaceOnUse"><rect width="46" height="20" fill="url(#fold-grad)"></rect></pattern></defs><path d="M 532 272 Q 509.0 289.0 486.0 272.0 Q 463.0 289.0 440.0 272.0 Q 417.0 289.0 394.0 272.0 Q 371.0 289.0 348.0 272.0 Q 325.0 289.0 302.0 272.0 Q 279.0 289.0 256.0 272.0 Q 233.0 289.0 210.0 272.0 Q 187.0 289.0 164.0 272.0 Q 141.0 289.0 118.0 272.0 Q 95.0 289.0 72.0 272.0 Q 49.0 289.0 26.0 272.0 Q 3.0 289.0 -12.0 272.0 " transform="translate(0 4)" fill="none" stroke="#000" stroke-opacity="0.05" stroke-width="4" stroke-linecap="round"></path><g clip-path="url(#curtain-clip)"><rect x="-12" y="-12" width="175" height="301" fill="#1CC468"></rect><rect x="163" y="-12" width="12" height="301" fill="#FFFFFF"></rect><rect x="175" y="-12" width="172" height="301" fill="#3A3328"></rect><rect x="347" y="-12" width="12" height="301" fill="#FFFFFF"></rect><rect x="359" y="-12" width="185" height="301" fill="#FFE25A"></rect><rect x="-12" y="-12" width="556" height="301" fill="url(#curtain-folds)"></rect><rect x="-12" y="-12" width="556" height="7" fill="#fff" opacity="0.18"></rect></g></g><g style="mix-blend-mode: screen;"><defs><linearGradient id="beam-grad-l" x1="0" y1="0" x2="1" y2="1"><stop offset="0" stop-color="#FFFAEA" stop-opacity="0.78"></stop><stop offset="1" stop-color="#FFFAEA" stop-opacity="0.05"></stop></linearGradient><linearGradient id="beam-grad-r" x1="1" y1="0" x2="0" y2="1"><stop offset="0" stop-color="#FFFAEA" stop-opacity="0.78"></stop><stop offset="1" stop-color="#FFFAEA" stop-opacity="0.05"></stop></linearGradient><linearGradient id="beam-grad-c" x1="0" y1="0" x2="0" y2="1"><stop offset="0" stop-color="#FFFAEA" stop-opacity="0.74"></stop><stop offset="1" stop-color="#FFFAEA" stop-opacity="0.05"></stop></linearGradient><radialGradient id="pool-grad" cx="0.5" cy="0.5" r="0.5"><stop offset="0" stop-color="#FFF6D6" stop-opacity="0.85"></stop><stop offset="0.35" stop-color="#FFF3CC" stop-opacity="0.5"></stop><stop offset="0.62" stop-color="#FFF3CC" stop-opacity="0.24"></stop><stop offset="1" stop-color="#FFF3CC" stop-opacity="0"></stop></radialGradient></defs><g style="filter: blur(4.5px);"><polygon points="24,124 88,112 332,474 196,496" fill="url(#beam-grad-l)"></polygon><polygon points="496,124 432,112 188,474 324,496" fill="url(#beam-grad-r)"></polygon><polygon points="236,-12 284,-12 338,490 182,490" fill="url(#beam-grad-c)"></polygon></g><ellipse cx="260" cy="408" rx="200" ry="100" fill="url(#pool-grad)"></ellipse></g><g transform="translate(0 -34)"><ellipse cx="232" cy="402" rx="152" ry="13" fill="#2A1A0A" opacity="0.11" style="filter: blur(4px);"></ellipse><path d="M70 380 Q 240 300 470 360" fill="none" stroke="#F6C667" stroke-width="10" stroke-linecap="round" opacity="0.6"></path><g transform="translate(355 372) rotate(-8)"><ellipse cx="0" cy="3.2" rx="20" ry="20" fill="#C8761C"></ellipse><circle cx="0" cy="0" r="20" fill="#FFC233"></circle><circle cx="0" cy="0" r="15.6" fill="none" stroke="#E8951B" stroke-width="2.4"></circle><circle cx="-5.6" cy="-5.6" r="3.2" fill="#FFE6A3"></circle></g><g transform="translate(398 360) rotate(10)"><ellipse cx="0" cy="2.72" rx="17" ry="17" fill="#C8761C"></ellipse><circle cx="0" cy="0" r="17" fill="#FFC233"></circle><circle cx="0" cy="0" r="13.26" fill="none" stroke="#E8951B" stroke-width="2.04"></circle><text x="0" y="5.78" text-anchor="middle" font-weight="700" font-size="15.64" fill="#B5610F">MT</text></g><g transform="translate(300 384) rotate(4)"><ellipse cx="0" cy="3.68" rx="23" ry="23" fill="#C8761C"></ellipse><circle cx="0" cy="0" r="23" fill="#FFC233"></circle><circle cx="0" cy="0" r="17.94" fill="none" stroke="#E8951B" stroke-width="2.76"></circle><text x="0" y="7.82" text-anchor="middle" font-weight="700" font-size="21.16" fill="#B5610F">MT</text></g><g transform="translate(250 372) rotate(-6)"><ellipse cx="0" cy="2.88" rx="18" ry="18" fill="#C8761C"></ellipse><circle cx="0" cy="0" r="18" fill="#FFC233"></circle><circle cx="0" cy="0" r="14.04" fill="none" stroke="#E8951B" stroke-width="2.16"></circle><circle cx="-5.04" cy="-5.04" r="2.88" fill="#FFE6A3"></circle></g><g transform="translate(208 384) rotate(3)"><ellipse cx="0" cy="4.16" rx="26" ry="26" fill="#C8761C"></ellipse><circle cx="0" cy="0" r="26" fill="#FFC233"></circle><circle cx="0" cy="0" r="20.28" fill="none" stroke="#E8951B" stroke-width="3.12"></circle><text x="0" y="8.84" text-anchor="middle" font-weight="700" font-size="23.92" fill="#B5610F">MT</text></g><g transform="translate(158 372) rotate(-10)"><ellipse cx="0" cy="3.2" rx="20" ry="20" fill="#C8761C"></ellipse><circle cx="0" cy="0" r="20" fill="#FFC233"></circle><circle cx="0" cy="0" r="15.6" fill="none" stroke="#E8951B" stroke-width="2.4"></circle><text x="0" y="6.8" text-anchor="middle" font-weight="700" font-size="18.4" fill="#B5610F">MT</text></g><g transform="translate(120 388) rotate(6)"><ellipse cx="0" cy="2.56" rx="16" ry="16" fill="#C8761C"></ellipse><circle cx="0" cy="0" r="16" fill="#FFC233"></circle><circle cx="0" cy="0" r="12.48" fill="none" stroke="#E8951B" stroke-width="1.92"></circle><circle cx="-4.48" cy="-4.48" r="2.56" fill="#FFE6A3"></circle></g><g transform="translate(430 300) rotate(18)"><ellipse cx="0" cy="2.08" rx="13" ry="13" fill="#C8761C"></ellipse><circle cx="0" cy="0" r="13" fill="#FFC233"></circle><circle cx="0" cy="0" r="10.14" fill="none" stroke="#E8951B" stroke-width="1.56"></circle><circle cx="-3.64" cy="-3.64" r="2.08" fill="#FFE6A3"></circle></g><g transform="translate(92 330) rotate(-14)"><ellipse cx="0" cy="1.92" rx="12" ry="12" fill="#C8761C"></ellipse><circle cx="0" cy="0" r="12" fill="#FFC233"></circle><circle cx="0" cy="0" r="9.36" fill="none" stroke="#E8951B" stroke-width="1.44"></circle><circle cx="-3.36" cy="-3.36" r="1.92" fill="#FFE6A3"></circle></g><g stroke="#E8951B" stroke-width="7" stroke-linecap="round" fill="none" opacity="0.8"><path d="M150 250 Q 120 280 110 320"></path><path d="M120 258 Q 92 292 86 332"></path></g></g><text x="260" y="444" text-anchor="middle" font-family="Fredoka, sans-serif" font-weight="600" font-size="82" fill="#1C1208" opacity="0.32" letter-spacing="-1.5" style="filter: blur(3px);">easystafe</text><text x="260" y="438" text-anchor="middle" font-family="Fredoka, sans-serif" font-weight="600" font-size="82" fill="#008541" letter-spacing="-1.5">easystafe</text><text x="260" y="475" text-anchor="middle" font-family="&#39;Space Mono&#39;, monospace" font-weight="700" font-size="13" fill="#C8761C" letter-spacing="0">github.com/moz-gpe/easystafe</text><g style="mix-blend-mode: multiply;"><defs><radialGradient id="vig-grad" cx="260" cy="425" r="290" gradientUnits="userSpaceOnUse" gradientTransform="translate(260 425) scale(1 0.62) translate(-260 -425)"><stop offset="0" stop-color="#1E1305" stop-opacity="0"></stop><stop offset="0.34" stop-color="#1E1305" stop-opacity="0"></stop><stop offset="0.68" stop-color="#1E1305" stop-opacity="0.2"></stop><stop offset="1" stop-color="#1E1305" stop-opacity="0.46"></stop></radialGradient></defs><path d="M 260.00 22.00 Q 260.00 22.00 260.00 22.00L 500.76 161.00 Q 500.76 161.00 500.76 161.00L 500.76 439.00 Q 500.76 439.00 500.76 439.00L 260.00 578.00 Q 260.00 578.00 260.00 578.00L 19.24 439.00 Q 19.24 439.00 19.24 439.00L 19.24 161.00 Q 19.24 161.00 19.24 161.00 Z" fill="url(#vig-grad)"></path><defs><linearGradient id="front-shade" x1="0" y1="0" x2="0" y2="1"><stop offset="0" stop-color="#1E1305" stop-opacity="0"></stop><stop offset="1" stop-color="#1E1305" stop-opacity="0.3"></stop></linearGradient></defs><rect x="0" y="492" width="520" height="108" fill="url(#front-shade)"></rect></g><g transform="translate(0 -34)"><g transform="translate(286 168) rotate(26)"><line x1="0" y1="0" x2="0" y2="150" stroke="#7C4A22" stroke-width="14" stroke-linecap="round"></line><line x1="4" y1="6" x2="4" y2="144" stroke="#5E3618" stroke-width="3" stroke-linecap="round" opacity="0.55"></line><line x1="-3.5" y1="6" x2="-3.5" y2="142" stroke="#9C6630" stroke-width="3.2" stroke-linecap="round"></line><line x1="-1" y1="10" x2="-1" y2="138" stroke="#6B3F1C" stroke-width="0.9" stroke-linecap="round" opacity="0.5"></line><line x1="1.5" y1="14" x2="1.5" y2="134" stroke="#6B3F1C" stroke-width="0.9" stroke-linecap="round" opacity="0.4"></line><g stroke="#5E3618" stroke-width="0.8" stroke-linecap="round" opacity="0.4"><line x1="-4" y1="42" x2="3" y2="46"></line><line x1="-3" y1="92" x2="4" y2="95"></line><line x1="-4" y1="118" x2="2" y2="121"></line></g><rect x="-13.5" y="153" width="27" height="17" rx="6" fill="#1E3A2B"></rect><path d="M -13 170 C -23 198 -34 226 -45 256 Q -38 263 -32 257 Q -25 263 -19 257 Q -13 263 -7 257 Q -1 263 5 257 Q 11 263 17 257 Q 23 263 29 257 Q 37 263 45 256 C 34 226 23 198 13 170 Z" fill="#FFB938" stroke="#B5610F" stroke-width="2.4" stroke-linejoin="round"></path><g fill="none" stroke-linecap="round"><g stroke="#C8761C" stroke-width="1.4"><path d="M -7 178 Q -25 216 -40 255"></path><path d="M -2 176 Q -8 212 -16 256"></path><path d="M 2 176 Q 9 213 17 256"></path><path d="M 7 178 Q 26 216 40 255"></path></g><g stroke="#E8951B" stroke-width="1.7"><path d="M -8 178 Q -27 216 -42 256"></path><path d="M -5 176 Q -16 214 -29 258"></path><path d="M -3 176 Q -9 212 -18 254"></path><path d="M -1 175 Q -3 214 -6 259"></path><path d="M 1 175 Q 4 212 8 255"></path><path d="M 3 176 Q 11 214 20 258"></path><path d="M 6 176 Q 22 215 31 254"></path><path d="M 8 178 Q 31 216 42 257"></path></g><g stroke="#FFD679" stroke-width="0.9"><path d="M -4 177 Q -14 214 -24 255"></path><path d="M 0 176 Q 1 213 1 257"></path><path d="M 4 177 Q 14 214 24 255"></path></g></g><path d="M -12 185 Q 0 190 12 185" fill="none" stroke="#B5610F" stroke-width="2.4" stroke-linecap="round"></path></g></g></g><path d="M 260.00 38.00 Q 260.00 38.00 260.00 38.00L 486.90 169.00 Q 486.90 169.00 486.90 169.00L 486.90 431.00 Q 486.90 431.00 486.90 431.00L 260.00 562.00 Q 260.00 562.00 260.00 562.00L 33.10 431.00 Q 33.10 431.00 33.10 431.00L 33.10 169.00 Q 33.10 169.00 33.10 169.00 Z" fill="none" stroke="#FFCf6b" stroke-width="5" stroke-dasharray="2 13" stroke-linecap="round" opacity="0.85"></path></svg>