<?xml version="1.0"?>
<svg viewBox="0 0 520 600" width="520" height="600" xmlns="http://www.w3.org/2000/svg"><defs></defs><defs><clipPath id="clip-broom"><path d="M 260.00 22.00 Q 260.00 22.00 260.00 22.00L 500.76 161.00 Q 500.76 161.00 500.76 161.00L 500.76 439.00 Q 500.76 439.00 500.76 439.00L 260.00 578.00 Q 260.00 578.00 260.00 578.00L 19.24 439.00 Q 19.24 439.00 19.24 439.00L 19.24 161.00 Q 19.24 161.00 19.24 161.00 Z"></path></clipPath></defs><path d="M 260.00 2.00 Q 260.00 2.00 260.00 2.00L 518.08 151.00 Q 518.08 151.00 518.08 151.00L 518.08 449.00 Q 518.08 449.00 518.08 449.00L 260.00 598.00 Q 260.00 598.00 260.00 598.00L 1.92 449.00 Q 1.92 449.00 1.92 449.00L 1.92 151.00 Q 1.92 151.00 1.92 151.00 Z" fill="#1E3A2B"></path><path d="M 260.00 22.00 Q 260.00 22.00 260.00 22.00L 500.76 161.00 Q 500.76 161.00 500.76 161.00L 500.76 439.00 Q 500.76 439.00 500.76 439.00L 260.00 578.00 Q 260.00 578.00 260.00 578.00L 19.24 439.00 Q 19.24 439.00 19.24 439.00L 19.24 161.00 Q 19.24 161.00 19.24 161.00 Z" fill="#FFF1D6"></path><g clip-path="url(#clip-broom)"><path d="M 260.00 22.00 Q 260.00 22.00 260.00 22.00L 500.76 161.00 Q 500.76 161.00 500.76 161.00L 500.76 439.00 Q 500.76 439.00 500.76 439.00L 260.00 578.00 Q 260.00 578.00 260.00 578.00L 19.24 439.00 Q 19.24 439.00 19.24 439.00L 19.24 161.00 Q 19.24 161.00 19.24 161.00 Z" fill="#FFE3B0"></path><defs><pattern id="capu-tex" width="54" height="54" patternUnits="userSpaceOnUse" patternTransform="translate(6 4)"><g fill="none" stroke="#FFF1D6" stroke-width="2.1" opacity="1"><circle cx="27" cy="27" r="9.5"></circle><circle cx="27" cy="27" r="4.5"></circle><circle cx="27" cy="27" r="1.6" fill="#FFF1D6" stroke="none"></circle><path d="M0 0 L5 5 L0 10 L-5 5 Z"></path><path d="M54 0 L59 5 L54 10 L49 5 Z"></path><path d="M0 54 L5 59 L0 64 L-5 59 Z"></path><path d="M54 54 L59 59 L54 64 L49 59 Z"></path><g opacity="0.8" stroke-dasharray="2.5 4"><line x1="27" y1="0" x2="27" y2="17.5"></line><line x1="27" y1="36.5" x2="27" y2="54"></line><line x1="0" y1="27" x2="17.5" y2="27"></line><line x1="36.5" y1="27" x2="54" y2="27"></line></g></g></pattern></defs><rect x="0" y="0" width="520" height="252" fill="url(#capu-tex)"></rect><rect x="0" y="250" width="520" height="350" fill="#FFF1D6"></rect><g transform="translate(0 -34)"><path d="M70 380 Q 240 300 470 360" fill="none" stroke="#F6C667" stroke-width="10" stroke-linecap="round" opacity="0.6"></path><g transform="translate(355 372) rotate(-8)"><ellipse cx="0" cy="3.2" rx="20" ry="20" fill="#C8761C"></ellipse><circle cx="0" cy="0" r="20" fill="#FFC233"></circle><circle cx="0" cy="0" r="15.6" fill="none" stroke="#E8951B" stroke-width="2.4"></circle><circle cx="-5.6" cy="-5.6" r="3.2" fill="#FFE6A3"></circle></g><g transform="translate(398 360) rotate(10)"><ellipse cx="0" cy="2.72" rx="17" ry="17" fill="#C8761C"></ellipse><circle cx="0" cy="0" r="17" fill="#FFC233"></circle><circle cx="0" cy="0" r="13.26" fill="none" stroke="#E8951B" stroke-width="2.04"></circle><text x="0" y="5.78" text-anchor="middle" font-weight="700" font-size="15.64" fill="#B5610F">MT</text></g><g transform="translate(300 384) rotate(4)"><ellipse cx="0" cy="3.68" rx="23" ry="23" fill="#C8761C"></ellipse><circle cx="0" cy="0" r="23" fill="#FFC233"></circle><circle cx="0" cy="0" r="17.94" fill="none" stroke="#E8951B" stroke-width="2.76"></circle><text x="0" y="7.82" text-anchor="middle" font-weight="700" font-size="21.16" fill="#B5610F">MT</text></g><g transform="translate(250 372) rotate(-6)"><ellipse cx="0" cy="2.88" rx="18" ry="18" fill="#C8761C"></ellipse><circle cx="0" cy="0" r="18" fill="#FFC233"></circle><circle cx="0" cy="0" r="14.04" fill="none" stroke="#E8951B" stroke-width="2.16"></circle><circle cx="-5.04" cy="-5.04" r="2.88" fill="#FFE6A3"></circle></g><g transform="translate(208 384) rotate(3)"><ellipse cx="0" cy="4.16" rx="26" ry="26" fill="#C8761C"></ellipse><circle cx="0" cy="0" r="26" fill="#FFC233"></circle><circle cx="0" cy="0" r="20.28" fill="none" stroke="#E8951B" stroke-width="3.12"></circle><text x="0" y="8.84" text-anchor="middle" font-weight="700" font-size="23.92" fill="#B5610F">MT</text></g><g transform="translate(158 372) rotate(-10)"><ellipse cx="0" cy="3.2" rx="20" ry="20" fill="#C8761C"></ellipse><circle cx="0" cy="0" r="20" fill="#FFC233"></circle><circle cx="0" cy="0" r="15.6" fill="none" stroke="#E8951B" stroke-width="2.4"></circle><text x="0" y="6.8" text-anchor="middle" font-weight="700" font-size="18.4" fill="#B5610F">MT</text></g><g transform="translate(120 388) rotate(6)"><ellipse cx="0" cy="2.56" rx="16" ry="16" fill="#C8761C"></ellipse><circle cx="0" cy="0" r="16" fill="#FFC233"></circle><circle cx="0" cy="0" r="12.48" fill="none" stroke="#E8951B" stroke-width="1.92"></circle><circle cx="-4.48" cy="-4.48" r="2.56" fill="#FFE6A3"></circle></g><g transform="translate(430 300) rotate(18)"><ellipse cx="0" cy="2.08" rx="13" ry="13" fill="#C8761C"></ellipse><circle cx="0" cy="0" r="13" fill="#FFC233"></circle><circle cx="0" cy="0" r="10.14" fill="none" stroke="#E8951B" stroke-width="1.56"></circle><circle cx="-3.64" cy="-3.64" r="2.08" fill="#FFE6A3"></circle></g><g transform="translate(92 330) rotate(-14)"><ellipse cx="0" cy="1.92" rx="12" ry="12" fill="#C8761C"></ellipse><circle cx="0" cy="0" r="12" fill="#FFC233"></circle><circle cx="0" cy="0" r="9.36" fill="none" stroke="#E8951B" stroke-width="1.44"></circle><circle cx="-3.36" cy="-3.36" r="1.92" fill="#FFE6A3"></circle></g><g stroke="#E8951B" stroke-width="7" stroke-linecap="round" fill="none" opacity="0.8"><path d="M150 250 Q 120 280 110 320"></path><path d="M120 258 Q 92 292 86 332"></path></g><g transform="translate(286 150) rotate(26)"><line x1="0" y1="0" x2="0" y2="150" stroke="#7C4A22" stroke-width="17" stroke-linecap="round"></line><line x1="-3" y1="6" x2="-3" y2="140" stroke="#9C6630" stroke-width="5" stroke-linecap="round"></line><rect x="-17" y="150" width="34" height="20" rx="7" fill="#1E3A2B"></rect><path d="M-16 168 L16 168 L40 250 Q 0 268 -40 250 Z" fill="#FFB938" stroke="#1E3A2B" stroke-width="6" stroke-linejoin="round"></path><g stroke="#E8951B" stroke-width="4" stroke-linecap="round"><line x1="-20" y1="202" x2="-25" y2="246"></line><line x1="-12" y1="195" x2="-14" y2="252"></line><line x1="0" y1="193" x2="0" y2="254"></line><line x1="12" y1="195" x2="14" y2="252"></line><line x1="20" y1="202" x2="25" y2="246"></line></g></g></g><text x="260" y="438" text-anchor="middle" font-family="Fredoka, sans-serif" font-weight="600" font-size="82" fill="#1E3A2B" letter-spacing="-1.5">easystafe</text><text x="260" y="475" text-anchor="middle" font-family="&#39;Space Mono&#39;, monospace" font-weight="700" font-size="13" fill="#C8761C" letter-spacing="0">github.com/moz-gpe/easystafe</text></g><path d="M 260.00 38.00 Q 260.00 38.00 260.00 38.00L 486.90 169.00 Q 486.90 169.00 486.90 169.00L 486.90 431.00 Q 486.90 431.00 486.90 431.00L 260.00 562.00 Q 260.00 562.00 260.00 562.00L 33.10 431.00 Q 33.10 431.00 33.10 431.00L 33.10 169.00 Q 33.10 169.00 33.10 169.00 Z" fill="none" stroke="#FFCf6b" stroke-width="5" stroke-dasharray="2 13" stroke-linecap="round" opacity="0.85"></path></svg>