<svg width="100%" viewBox="0 0 680 720" xmlns="http://www.w3.org/2000/svg">

  <!-- Hex background -->
  <polygon points="340,60 560,185 560,435 340,560 120,435 120,185"
           fill="#0F6E56" stroke="#085041" stroke-width="6"/>

  <!-- Hex inner border ring -->
  <polygon points="340,82 542,200 542,420 340,538 138,420 138,200"
           fill="none" stroke="#1D9E75" stroke-width="2" opacity="0.5"/>

  <!-- MZN watermark -->
  <text x="340" y="370"
        font-family="Georgia, serif"
        font-size="155"
        font-weight="700"
        fill="#9FE1CB"
        opacity="0.15"
        text-anchor="middle"
        dominant-baseline="central">MZN</text>

  <!-- Curly brace - left -->
  <text x="168" y="355"
        font-family="Georgia, serif"
        font-size="110"
        font-weight="400"
        fill="#5DCAA5"
        opacity="0.85"
        text-anchor="middle"
        dominant-baseline="central">{</text>

  <!-- Curly brace - right -->
  <text x="512" y="355"
        font-family="Georgia, serif"
        font-size="110"
        font-weight="400"
        fill="#5DCAA5"
        opacity="0.85"
        text-anchor="middle"
        dominant-baseline="central">}</text>

  <!-- Gear -->
  <polygon fill="white" opacity="0.92"
    points="
      340.00,150.00  336.51,144.65  331.34,149.82  330.21,156.99
      320.21,153.91  313.37,147.08  306.54,153.91  303.45,163.68
      294.90,164.46  286.27,161.28  282.76,170.53  283.68,180.49
      277.64,184.28  269.33,183.84  269.71,193.84  274.05,203.09
      270.21,209.08  263.68,211.81  267.45,221.11  274.55,228.21
      274.14,235.27  270.21,241.51  276.98,248.28  285.43,252.12
      287.92,258.71  287.03,265.72  296.03,267.08  305.35,262.87
      309.55,268.00  311.13,275.00  320.00,273.40  328.00,266.94
      332.79,270.00  336.51,276.26  344.49,276.26  348.21,270.00
      353.00,266.94  362.00,273.40  368.87,275.00  370.45,268.00
      374.65,262.87  383.97,267.08  392.97,265.72  392.08,258.71
      394.57,252.12  403.02,248.28  409.79,241.51  405.86,235.27
      405.45,228.21  412.55,221.11  416.32,211.81  409.79,209.08
      405.95,203.09  410.29,193.84  410.67,183.84  402.36,184.28
      396.32,180.49  397.24,170.53  393.73,161.28  385.10,164.46
      376.55,163.68  373.46,153.91  366.63,147.08  356.63,150.16
      349.79,144.65  348.66,137.48  340.00,136.00  331.34,137.48
    "
  />
  <!-- Inner hole -->
  <circle cx="340" cy="200" r="18" fill="#0F6E56"/>

  <!-- MZN -->
  <text x="340" y="345"
        font-family="Georgia, serif"
        font-size="86"
        font-weight="700"
        fill="#E1F5EE"
        text-anchor="middle"
        dominant-baseline="central">MZN</text>

  <!-- Package name -->
  <text x="340" y="440"
        font-family="'Helvetica Neue', Arial, sans-serif"
        font-size="38"
        font-weight="700"
        letter-spacing="6"
        fill="#E1F5EE"
        text-anchor="middle"
        dominant-baseline="central">easystafe</text>

  <!-- Separator -->
  <line x1="210" y1="465" x2="470" y2="465" stroke="#5DCAA5" stroke-width="1.2" opacity="0.6"/>

  <!-- Subtitle -->
  <text x="340" y="492"
        font-family="'Helvetica Neue', Arial, sans-serif"
        font-size="16"
        font-weight="400"
        letter-spacing="2"
        fill="#9FE1CB"
        opacity="0.9"
        text-anchor="middle"
        dominant-baseline="central">e-SISTAFE for R</text>

</svg>
